<svg id="Guides" xmlns="http://www.w3.org/2000/svg" viewBox="0 0 246.65 206.1">
  <defs>
    <style>
      .cls-1 {
        fill: #03a04a;
      }

      .cls-2 {
        fill: #fff;
      }

      .cls-3 {
        fill: #f39222;
      }
    </style>
  </defs>
  <g>
    <g>
      <path class="cls-1" d="M33.62,180.86H22l-1.72,4.28H12.42l11.7-26.08h7.45l11.67,26.08h-7.9Zm-5.81-14.5-3.35,8.31h6.67Z"/>
      <path class="cls-1" d="M49.75,186.45c-.07,2.87,1.64,3.5,3.47,3.5s3.39-.86,3.39-2.64c0-1.35-.82-2.46-3.32-2.46-6.18,0-10.25-3.58-10.25-9.28s4.55-9.43,10.25-9.43a11.16,11.16,0,0,1,3.8.71c.64-.82,1.38-1.75,2-2.53L64,167.86l-2.38,2.83a6.91,6.91,0,0,1,1.75,4.95A7.73,7.73,0,0,1,60,181.75c3.4,1.94,3.62,4.55,3.62,5.56,0,6-5.18,8.19-10.43,8.19-6.6,0-10.29-3.43-9.92-9.05Zm0-10.88a3.45,3.45,0,0,0,3.58,3.61,3.32,3.32,0,0,0,3.47-3.61,3.59,3.59,0,0,0-3.47-3.8A3.47,3.47,0,0,0,49.71,175.57Z"/>
      <path class="cls-1" d="M73.11,166.74l.41,2A4.92,4.92,0,0,1,78,166.29a6.7,6.7,0,0,1,4.85,2l-2.76,5A4.39,4.39,0,0,0,77,172.1c-1.72,0-3.17,1.05-3.17,3.47v9.57H67v-18.4Z"/>
      <path class="cls-1" d="M104.07,176c0,6.71-5.33,9.61-10.51,9.61s-10.5-2.9-10.5-9.61,5.18-9.65,10.5-9.65S104.07,169.27,104.07,176Zm-6.71,0a3.8,3.8,0,1,0-3.8,4A3.77,3.77,0,0,0,97.36,176Z"/>
      <path class="cls-1" d="M114.61,178.1v7h-7.37V159.06H119.9c7,0,10.47,4.4,10.47,9.5,0,5.33-3.5,9.47-10.47,9.54Zm0-6.22h5.29a3,3,0,0,0,3.1-3.21,3.06,3.06,0,0,0-3.1-3.27h-5.29Z"/>
      <path class="cls-1" d="M152.58,176c0,6.71-5.33,9.61-10.51,9.61s-10.51-2.9-10.51-9.61,5.18-9.65,10.51-9.65S152.58,169.27,152.58,176Zm-6.71,0a3.8,3.8,0,1,0-3.8,4A3.78,3.78,0,0,0,145.87,176Z"/>
      <path class="cls-1" d="M172.62,182.39a11.44,11.44,0,0,1-7.6,3.13c-5.37,0-10.43-2.65-10.43-9.54,0-6.71,5.14-9.65,10.32-9.65a10.17,10.17,0,0,1,7.23,2.87l-3.66,4a4.13,4.13,0,0,0-3.16-1.35,3.91,3.91,0,0,0-4,4.22,3.71,3.71,0,0,0,4,3.8,4.67,4.67,0,0,0,3.43-1.53Z"/>
      <path class="cls-1" d="M181.82,159.06v13.08l3.84-5.4h7.64V167l-6.45,8.35,7.49,9.35v.41h-7.75l-4.77-6.4v6.4h-6.89V159.06Z"/>
      <path class="cls-1" d="M213.94,177.88H201.08c.49,1.64,2.61,2.35,4.1,2.35a7.65,7.65,0,0,0,4.73-1.49l3.36,3.76a12.18,12.18,0,0,1-8.39,3.05c-5.81,0-10.73-2.86-10.73-9.57s5.25-9.69,10.25-9.69C210.92,166.29,215.5,170.61,213.94,177.88Zm-6.15-4.4c-.19-2.91-6.22-3-6.67,0Z"/>
      <path class="cls-1" d="M225.6,161.52v5.33h4.13v5.25h-4.17v6a1.64,1.64,0,0,0,1.82,1.79,3.83,3.83,0,0,0,2-.64l1.49,5.07a10.51,10.51,0,0,1-5.29,1.23c-3.66,0-6.93-1.68-6.82-7.45v-6h-2.95v-5.25h2.95v-4.58Z"/>
    </g>
    <path class="cls-1" d="M232.07,108.47q0,19.22,0,38.41c0,3.61-1.13,4.74-4.72,4.74H21.51c-8.89,0-14.74-5.88-14.75-14.78l0-26.69.06-69,0-20.64c1,0,40.25-.16,86.41-.31,48.22-.15,104-.32,131.8-.32h2c3.94,0,5,1,5,4.9,0,6.57,0,13.13,0,19.71V64.81c-.79,0-1.5.11-2.2.13-5.5,0-11-.11-16.45.1A20.65,20.65,0,0,0,193.93,84.4c-.56,10.63,6.82,20.11,17.06,21.73a53.47,53.47,0,0,0,7.49.39c4.46,0,8.91,0,13.47,0C232,107.29,232.07,107.88,232.07,108.47Z"/>
    <path class="cls-2" d="M142.34,103.32c-1.15,1.67-2.24,3.34-3.44,5a68.67,68.67,0,0,1-16,16,28.6,28.6,0,0,1-13.73,5.39,21.17,21.17,0,0,1-13.74-3.53c5-7,12.19-10.68,19.7-14.06-1.38.25-2.77.45-4.14.76-9.07,2-17.31,6-25.23,10.77-4.06,2.44-8.15,4.86-11.56,8.24a32.82,32.82,0,0,0-3.87,4,40.45,40.45,0,0,0-2.43,4.78C66,144.34,64.1,148,62.19,151.62H51.27a4.29,4.29,0,0,1,.26-.84,23.2,23.2,0,0,1,1-2.12c3.18-6.47,6.57-12.83,9.45-19.43A89.2,89.2,0,0,0,69.12,100a165.87,165.87,0,0,0-.69-30.95,2,2,0,0,0-.17-.63c-1,9.75-2.91,19.29-7.64,28.34-1.74-1.21-3.48-2.22-5-3.5-6-5-8.67-11.67-9.39-19.27-.72-7.41.43-14.63,2.3-21.78a111.27,111.27,0,0,1,6.9-19c.31-.69.7-1.33,1-2,.57.31,1.13.65,1.7,1,2,1.46,4,2.85,5.88,4.36C72.2,42.93,79.66,50,84.85,59.07a31.72,31.72,0,0,1,4.59,16.56A24.73,24.73,0,0,1,85.32,89c-1.84,2.71-4.1,5.16-6.14,7.74a2.08,2.08,0,0,0-.53,1.21,70.92,70.92,0,0,1-2.18,19.25,2.18,2.18,0,0,0,0,.39c.42-.21.76-.43,1.13-.59,3-1.28,5.93-2.58,8.93-3.79a1.8,1.8,0,0,0,1.26-1.27,24.33,24.33,0,0,1,4.86-9.43C96.44,98,101.39,95.9,107,95.16c6-.77,11.83.09,17.62,1.51a91.12,91.12,0,0,1,16,5.71C141.22,102.63,141.7,102.94,142.34,103.32Z"/>
    <path class="cls-3" d="M225.24,71.89c3.52,0,7,0,10.56,0,2.84,0,4.06,1.27,4.07,4.13q0,9.75,0,19.51c0,2.78-1.33,4.06-4.16,4.07-6.71,0-13.41.06-20.12,0a13.84,13.84,0,0,1-.11-27.68c3.25-.08,6.5,0,9.76,0Z"/>
  </g>
</svg>
